<?xml version="1.0" standalone="no"?>
<!DOCTYPE svg PUBLIC "-//W3C//DTD SVG 20010904//EN"
 "http://www.w3.org/TR/2001/REC-SVG-20010904/DTD/svg10.dtd">
<svg version="1.0" xmlns="http://www.w3.org/2000/svg"
 width="500.000000pt" height="500.000000pt" viewBox="0 0 500.000000 500.000000"
 preserveAspectRatio="xMidYMid meet">
<metadata>
Created by potrace 1.16, written by Peter Selinger 2001-2019
</metadata>
<g transform="translate(0.000000,500.000000) scale(0.100000,-0.100000)"
fill="#000000" stroke="none">
<path d="M925 4750 c-4 -6 -6 -206 -6 -446 0 -321 3 -439 12 -450 10 -12 218
-14 1470 -14 l1459 0 0 -340 0 -340 -1467 -2 -1468 -3 -5 -450 c-6 -506 -10
-478 70 -474 25 1 98 1 163 0 l117 -1 0 -120 c0 -117 0 -120 23 -126 13 -3 41
-4 63 -2 l39 3 3 121 3 121 472 6 c625 9 1619 -1 1629 -17 4 -6 8 -61 8 -123
0 -127 1 -129 80 -115 l45 8 3 122 3 122 142 0 c98 0 147 4 155 12 14 14 16
104 3 113 -6 3 -660 5 -1455 5 l-1446 0 0 340 0 340 1467 0 c1186 -1 1468 2
1475 12 13 22 10 892 -4 906 -9 9 -349 12 -1470 12 l-1458 0 0 243 c0 133 -3
286 -7 339 l-6 97 1449 1 c796 0 1452 4 1457 9 4 4 7 28 5 52 l-3 44 -1507 3
c-1013 1 -1509 -1 -1513 -8z"/>
<path d="M2597 4354 c-4 -4 -7 -27 -7 -50 0 -32 4 -44 18 -47 14 -4 351 -2
375 2 4 0 7 22 5 49 l-3 47 -191 3 c-104 1 -193 -1 -197 -4z"/>
<path d="M925 3800 c6 -9 -29 -15 -62 -11 -10 2 -13 -61 -13 -282 l0 -283 75
3 c77 4 92 -1 53 -17 -14 -5 494 -8 1282 -7 l1305 2 3 289 c2 205 -1 293 -9
302 -10 12 -225 14 -1326 14 -874 0 -1312 -3 -1308 -10z"/>
<path d="M2254 2736 c-3 -8 -4 -29 -2 -48 l3 -33 195 0 195 0 0 45 0 45 -193
3 c-159 2 -193 0 -198 -12z"/>
<path d="M641 829 c-31 -29 -41 -61 -41 -130 l0 -59 55 0 55 0 0 55 c0 52 -1
55 -26 55 -31 0 -28 20 4 35 32 14 31 65 -1 65 -13 0 -33 -9 -46 -21z"/>
<path d="M763 826 c-25 -22 -28 -31 -31 -105 l-4 -81 56 0 56 0 0 55 c0 52 -1
55 -26 55 -31 0 -28 20 4 35 15 7 22 19 22 37 0 23 -4 28 -24 28 -14 0 -37
-11 -53 -24z"/>
<path d="M4160 795 c0 -52 1 -55 25 -55 14 0 25 -5 25 -10 0 -6 -11 -16 -25
-22 -18 -8 -25 -19 -25 -40 0 -31 16 -36 53 -17 44 23 57 50 57 127 l0 72 -55
0 -55 0 0 -55z"/>
<path d="M4290 795 c0 -52 1 -55 25 -55 29 0 25 -26 -6 -35 -13 -5 -19 -16
-19 -37 0 -28 2 -30 28 -23 15 3 38 17 52 31 21 20 25 35 28 99 l4 75 -56 0
-56 0 0 -55z"/>
<path d="M890 820 c0 -5 9 -10 20 -10 19 0 19 -5 14 -112 -8 -184 -11 -198
-40 -198 -24 0 -24 -1 -24 -100 l0 -100 55 0 c60 0 58 -3 46 73 l-8 47 112 0
112 0 -8 -42 c-15 -78 -15 -78 46 -78 l55 0 0 100 0 100 -25 0 -25 0 0 155 c0
131 2 155 15 155 8 0 15 5 15 10 0 6 -67 10 -180 10 -113 0 -180 -4 -180 -10z
m220 -195 l0 -125 -49 0 -49 0 5 113 c2 61 6 118 8 125 3 7 21 12 45 12 l40 0
0 -125z"/>
<path d="M2300 820 c0 -5 8 -10 19 -10 17 0 16 -11 -20 -162 -22 -90 -41 -173
-44 -185 -3 -15 -13 -23 -25 -23 -11 0 -20 -4 -20 -10 0 -6 33 -10 80 -10 47
0 80 4 80 10 0 6 -7 10 -15 10 -16 0 -19 9 -9 34 5 12 20 16 59 16 48 0 53 -2
57 -25 4 -16 1 -25 -8 -25 -7 0 -16 -4 -19 -10 -4 -7 58 -10 179 -10 117 0
186 4 186 10 0 6 -7 10 -15 10 -12 0 -15 13 -15 60 l0 60 45 0 45 0 0 -60 c0
-53 -2 -60 -20 -60 -11 0 -20 -4 -20 -10 0 -6 38 -10 95 -10 l95 0 0 -60 0
-60 56 0 56 0 -7 60 -7 60 101 0 c100 0 101 0 97 -22 -3 -13 -8 -40 -11 -60
l-6 -38 56 0 55 0 0 100 0 100 -25 0 -25 0 0 130 c0 109 2 130 15 130 8 0 15
5 15 10 0 6 -63 10 -170 10 -107 0 -170 -4 -170 -10 0 -5 9 -10 21 -10 21 0
21 -3 14 -112 -8 -140 -10 -148 -41 -148 -21 0 -24 -5 -24 -34 0 -29 -3 -33
-20 -29 -19 5 -20 14 -20 164 0 152 1 159 20 159 11 0 20 5 20 10 0 6 -38 10
-95 10 -57 0 -95 -4 -95 -10 0 -5 9 -10 20 -10 18 0 20 -7 20 -60 l0 -60 -45
0 -45 0 0 60 c0 47 3 60 15 60 8 0 15 5 15 10 0 6 -37 10 -90 10 -53 0 -90 -4
-90 -10 0 -5 9 -10 20 -10 19 0 20 -7 20 -160 l0 -160 -39 0 -39 0 -27 118
c-15 64 -35 151 -45 192 l-17 75 -96 3 c-62 2 -97 -1 -97 -8z"/>
<path d="M1280 771 c0 -6 9 -11 20 -11 19 0 20 -7 20 -160 0 -153 -1 -160 -20
-160 -11 0 -20 -4 -20 -10 0 -6 55 -10 145 -10 142 0 147 1 170 25 36 36 37
98 2 130 l-22 20 23 22 c31 31 30 92 -2 130 -24 28 -24 28 -170 31 -99 2 -146
0 -146 -7z"/>
<path d="M1680 711 c0 -56 3 -71 15 -71 8 0 15 8 15 19 0 23 26 31 103 31 53
0 57 -2 57 -22 0 -22 -4 -23 -76 -23 -71 0 -77 -2 -100 -28 -19 -22 -24 -39
-24 -83 0 -48 4 -60 28 -84 l29 -28 141 0 c82 -1 142 3 142 9 0 5 -7 9 -15 9
-13 0 -15 22 -15 135 0 135 0 135 -29 167 l-29 33 -121 3 -121 4 0 -71z"/>
<path d="M3410 770 c0 -5 9 -10 20 -10 19 0 20 -7 20 -200 0 -193 -1 -200 -20
-200 -11 0 -20 -4 -20 -10 0 -6 37 -10 90 -10 53 0 90 4 90 10 0 6 -7 10 -15
10 -10 0 -15 10 -15 33 l0 32 61 -3 c113 -7 139 26 139 175 0 78 -4 104 -19
129 -28 46 -69 59 -139 45 -38 -7 -58 -8 -60 -1 -5 13 -132 13 -132 0z m240
-175 c0 -103 1 -101 -59 -89 l-31 7 0 82 c0 90 2 93 58 94 l32 1 0 -95z"/>
<path d="M3780 770 c0 -5 7 -10 15 -10 13 0 15 -24 15 -160 0 -136 -2 -160
-15 -160 -8 0 -15 -4 -15 -10 0 -6 67 -10 180 -10 113 0 180 4 180 10 0 6 -7
10 -15 10 -13 0 -15 26 -15 170 l0 170 -75 0 c-43 0 -75 -4 -75 -10 0 -5 9
-10 20 -10 19 0 20 -7 20 -160 l0 -160 -40 0 -40 0 0 170 0 170 -70 0 c-40 0
-70 -4 -70 -10z"/>
</g>
</svg>
